<?xml version="1.0" standalone="no"?>
<!DOCTYPE svg PUBLIC "-//W3C//DTD SVG 20010904//EN"
 "http://www.w3.org/TR/2001/REC-SVG-20010904/DTD/svg10.dtd">
<svg version="1.0" xmlns="http://www.w3.org/2000/svg"
 width="350.000000pt" height="350.000000pt" viewBox="0 0 350.000000 350.000000"
 preserveAspectRatio="xMidYMid meet">
<metadata>
Created by potrace 1.11, written by Peter Selinger 2001-2013
</metadata>
<g transform="translate(0.000000,350.000000) scale(0.100000,-0.100000)"
fill="#000000" stroke="none">
<path d="M1565 3059 c-114 -22 -154 -32 -240 -61 -206 -69 -396 -184 -551
-333 -35 -33 -49 -81 -33 -111 8 -16 9 -28 3 -32 -33 -24 -139 -233 -173 -342
-13 -41 -27 -85 -32 -98 -5 -13 -9 -33 -9 -44 0 -48 -23 -87 -66 -108 -103
-53 -162 -153 -181 -305 -9 -74 -9 -83 0 -170 16 -153 51 -240 125 -314 44
-44 163 -111 196 -111 8 0 18 -4 21 -10 3 -5 19 -10 35 -10 16 0 40 -5 54 -11
19 -9 32 -8 65 7 67 29 70 40 71 233 1 96 6 171 11 171 5 0 9 -16 9 -35 0 -19
5 -35 10 -35 6 0 10 -9 10 -19 0 -11 5 -23 10 -26 5 -3 10 -13 10 -21 0 -25
79 -101 129 -125 58 -28 185 -30 276 -4 33 9 71 20 85 23 60 13 153 78 183
127 31 52 67 153 67 188 0 33 25 47 83 47 60 0 61 -2 94 -138 3 -12 9 -25 14
-28 5 -3 9 -12 9 -20 0 -26 53 -95 94 -124 36 -24 71 -37 216 -83 19 -6 76
-10 125 -10 73 0 99 4 138 23 68 32 135 122 152 203 13 66 23 16 27 -131 2
-121 6 -163 18 -177 13 -16 10 -21 -32 -59 -53 -48 -145 -116 -157 -116 -4 0
-16 -9 -26 -20 -10 -11 -24 -20 -32 -20 -7 0 -13 -4 -13 -8 0 -5 -16 -14 -35
-22 -19 -8 -35 -17 -35 -22 0 -4 -6 -8 -13 -8 -7 0 -39 -13 -72 -30 -33 -16
-68 -30 -77 -30 -10 0 -18 -4 -18 -10 0 -5 -7 -10 -16 -10 -8 0 -37 -7 -64
-16 -48 -16 -50 -16 -104 11 -47 23 -64 26 -113 21 -116 -10 -284 -40 -312
-55 -28 -16 -59 -57 -66 -91 -8 -36 26 -102 62 -121 29 -15 113 -15 186 1 29
6 71 15 95 21 23 5 54 9 68 9 36 0 73 22 122 74 24 25 48 46 54 46 57 0 321
121 441 202 63 42 138 101 192 150 33 31 105 68 132 68 50 1 193 66 244 113
38 34 99 118 99 136 0 6 4 19 9 29 27 53 34 107 35 249 0 107 -3 156 -12 165
-7 7 -12 21 -12 31 0 33 -59 124 -103 159 -22 18 -59 42 -81 53 -31 15 -42 28
-49 55 -32 130 -44 175 -58 208 -5 12 -13 32 -17 45 -17 46 -77 163 -104 204
-15 23 -28 46 -28 51 0 6 -6 12 -12 15 -10 3 -10 9 0 28 18 34 2 72 -51 127
-70 73 -245 196 -337 238 -14 7 -47 22 -75 35 -64 29 -107 45 -160 60 -16 4
-48 13 -70 19 -109 32 -345 47 -440 29z m260 -244 c168 -24 185 -27 191 -36 3
-5 14 -9 25 -9 10 0 27 -4 37 -9 9 -5 49 -24 87 -42 94 -44 201 -117 279 -189
35 -33 72 -60 83 -60 17 0 63 -41 63 -56 0 -3 14 -25 30 -49 17 -24 30 -50 30
-58 0 -9 3 -17 8 -19 4 -1 18 -28 31 -58 13 -30 27 -63 32 -72 5 -10 9 -26 9
-36 0 -10 4 -22 9 -28 4 -5 11 -25 14 -44 l5 -35 -43 0 c-47 0 -89 -29 -106
-74 -6 -13 -10 -126 -11 -250 0 -149 -4 -211 -9 -181 -17 92 -21 110 -30 110
-5 0 -9 7 -9 15 0 35 -86 103 -155 123 -28 8 -223 11 -665 11 -650 -1 -658 -1
-738 -43 -66 -35 -122 -132 -122 -212 0 -24 -4 -44 -10 -44 -6 0 -10 86 -10
238 l0 238 -29 34 c-27 33 -32 35 -89 34 l-59 -1 10 31 c5 17 13 40 17 51 4
11 13 38 20 60 11 34 47 111 104 222 6 13 14 23 19 23 4 0 7 4 7 10 0 18 43
60 63 60 10 0 39 20 65 44 41 38 71 63 143 119 51 40 248 137 278 137 11 0 22
4 25 9 6 9 37 15 181 35 119 17 106 17 220 1z m34 -1124 l44 -1 -26 -25 c-14
-14 -33 -42 -42 -61 -12 -26 -20 -33 -28 -25 -14 14 -154 14 -163 0 -4 -7 -13
2 -22 21 -8 17 -28 45 -44 60 l-29 29 63 3 c35 2 95 2 133 1 39 -1 90 -2 114
-2z"/>
</g>
</svg>
